<?xml version="1.0" standalone="no"?>
<!DOCTYPE svg PUBLIC "-//W3C//DTD SVG 20010904//EN"
 "http://www.w3.org/TR/2001/REC-SVG-20010904/DTD/svg10.dtd">
<svg version="1.0" xmlns="http://www.w3.org/2000/svg"
 width="900.000000pt" height="900.000000pt" viewBox="0 0 900.000000 900.000000"
 preserveAspectRatio="xMidYMid meet">
<metadata>
Created by potrace 1.14, written by Peter Selinger 2001-2017
</metadata>
<g transform="translate(0.000000,900.000000) scale(0.100000,-0.100000)"
fill="#000000" stroke="none">
<path d="M4667 8588 c-39 -21 -137 -27 -161 -10 -18 12 -63 14 -71 3 -3 -6
-21 -11 -40 -11 -22 0 -37 -6 -44 -17 -8 -14 -26 -18 -107 -20 -77 -1 -101 -5
-110 -18 -6 -9 -21 -18 -33 -20 -12 -2 -29 -11 -37 -20 -9 -9 -28 -15 -43 -13
-14 1 -25 -2 -24 -7 2 -12 -97 -13 -115 -1 -8 4 -47 8 -88 9 l-75 0 -90 -86
c-65 -62 -101 -88 -125 -93 -18 -3 -35 -5 -38 -3 -2 2 -13 -4 -23 -14 -11 -9
-23 -14 -26 -10 -4 3 -7 1 -7 -5 0 -7 -3 -11 -7 -10 -15 3 -43 -14 -37 -23 3
-5 -3 -9 -13 -9 -20 -1 -48 -19 -53 -35 -2 -5 -5 -18 -8 -27 -5 -21 -7 -22
-32 -6 -15 9 -24 9 -43 -1 -13 -7 -35 -11 -48 -9 -13 1 -31 -3 -39 -10 -8 -7
-28 -24 -44 -37 -16 -14 -32 -25 -36 -25 -4 0 -7 -8 -6 -17 0 -10 -5 -18 -11
-18 -7 0 -12 -3 -10 -6 1 -4 -6 -15 -15 -25 -9 -11 -17 -23 -17 -29 -1 -5 -8
-18 -16 -27 -8 -10 -12 -18 -10 -18 8 0 -35 -45 -43 -45 -15 -1 -72 -30 -72
-37 0 -5 -5 -8 -12 -8 -6 0 -33 -22 -59 -50 -25 -27 -49 -46 -53 -43 -6 7 -9
-11 -7 -38 1 -9 -9 -27 -23 -40 -18 -17 -22 -28 -15 -40 6 -13 3 -21 -16 -33
-13 -9 -29 -16 -35 -16 -5 0 -18 -8 -28 -17 -9 -10 -29 -27 -43 -38 -14 -11
-27 -24 -30 -30 -2 -5 -10 -9 -16 -9 -12 2 -17 -9 -14 -28 0 -5 -5 -8 -12 -8
-8 0 -22 -18 -32 -40 -10 -22 -22 -40 -27 -40 -5 0 -7 -4 -3 -10 3 -5 -7 -16
-22 -24 -64 -33 -132 -120 -127 -161 2 -11 5 -32 7 -47 2 -16 1 -28 -3 -28 -6
0 -5 -63 1 -80 1 -3 0 -9 -1 -15 -1 -5 -2 -31 -1 -57 1 -33 -3 -48 -11 -48 -7
0 -21 -26 -31 -58 -24 -79 -27 -96 -31 -181 -3 -43 -9 -77 -16 -81 -14 -9 -49
-100 -57 -146 -3 -20 3 -49 17 -80 13 -30 20 -65 19 -89 -2 -23 0 -46 4 -52 4
-6 2 -13 -5 -15 -7 -3 -4 -11 9 -24 52 -48 81 -95 77 -122 -3 -15 -6 -43 -7
-62 -2 -19 -6 -41 -10 -47 -5 -7 -6 -13 -2 -13 3 0 0 -10 -7 -22 -6 -13 -13
-32 -14 -43 -1 -11 -4 -38 -8 -60 -4 -22 -10 -58 -13 -80 -3 -22 -10 -46 -15
-52 -7 -9 -7 -13 1 -13 8 0 9 -6 2 -17 -5 -10 -11 -61 -14 -113 -3 -52 -8
-113 -12 -135 -4 -22 -7 -47 -9 -55 -1 -8 -4 -19 -7 -25 -3 -5 -6 -49 -6 -96
-1 -48 -4 -95 -7 -105 -3 -11 -8 -35 -11 -54 -3 -19 -8 -48 -12 -65 -3 -16 -7
-75 -9 -130 -1 -55 -5 -111 -9 -125 -5 -23 -12 -54 -18 -83 -1 -6 -10 -18 -20
-27 -9 -8 -19 -26 -22 -39 -2 -12 -9 -29 -15 -36 -6 -8 -13 -26 -15 -42 -2
-15 -4 -28 -5 -28 -1 0 -3 -15 -5 -33 -3 -41 -9 -47 -28 -28 -9 9 -24 17 -34
19 -10 1 -24 6 -30 10 -7 5 -13 4 -13 0 0 -5 -18 -8 -40 -8 -22 0 -40 4 -40 9
0 4 -6 4 -12 -1 -7 -6 -21 -9 -31 -8 -9 2 -17 -3 -17 -11 0 -8 -3 -14 -7 -15
-5 -1 -20 -2 -36 -3 -15 -2 -35 -10 -45 -19 -10 -10 -22 -15 -25 -12 -4 3 -5
2 -2 -2 3 -3 -6 -21 -20 -39 -14 -18 -25 -37 -25 -42 0 -5 -7 -15 -15 -22 -8
-7 -13 -16 -10 -20 3 -5 2 -10 -2 -12 -8 -3 -48 -76 -48 -87 -1 -3 -8 -22 -17
-41 -40 -86 -59 -165 -45 -179 6 -6 7 -11 1 -11 -11 0 -12 -90 0 -108 4 -6 4
-12 -1 -12 -4 0 -8 -29 -8 -65 0 -36 3 -65 6 -65 3 0 6 -6 6 -12 1 -21 11 -67
17 -76 3 -5 6 -30 7 -58 1 -27 6 -54 10 -59 4 -6 10 -22 13 -35 13 -71 28
-125 37 -136 6 -7 12 -25 15 -41 3 -15 12 -41 20 -57 8 -17 17 -44 20 -60 3
-17 9 -33 15 -34 5 -2 9 -8 9 -13 0 -11 42 -72 53 -77 4 -2 7 -8 7 -14 0 -6
15 -28 32 -51 49 -62 290 -297 304 -297 7 0 16 -9 19 -20 4 -11 11 -18 16 -15
5 4 9 1 9 -6 0 -7 3 -9 7 -6 3 4 15 0 25 -10 10 -9 18 -13 18 -10 0 3 18 0 39
-8 22 -7 42 -11 45 -8 3 4 6 2 6 -3 0 -6 24 -11 53 -11 57 -1 108 -17 150 -48
20 -15 28 -31 32 -63 3 -24 12 -57 20 -72 8 -16 15 -43 15 -60 0 -17 5 -41 12
-53 7 -12 13 -26 14 -32 1 -5 5 -23 9 -40 3 -16 7 -36 7 -42 1 -7 7 -13 15
-13 7 0 12 -3 11 -7 -3 -16 15 -63 28 -74 8 -6 14 -20 14 -30 0 -11 9 -28 20
-39 12 -12 20 -26 19 -33 -3 -23 1 -38 9 -33 4 2 12 -7 19 -20 6 -14 7 -24 2
-24 -6 0 6 -16 26 -37 19 -20 33 -38 30 -41 -2 -3 9 -17 25 -32 17 -16 30 -33
30 -38 0 -6 6 -17 13 -24 6 -7 25 -33 42 -57 16 -24 35 -45 42 -48 7 -3 13
-10 13 -17 0 -14 68 -86 81 -86 5 0 9 -4 9 -10 0 -5 15 -25 32 -43 18 -19 44
-47 57 -63 52 -63 91 -104 100 -104 5 0 13 -9 16 -20 3 -11 10 -20 16 -20 9 0
49 -35 139 -120 129 -122 240 -218 298 -257 20 -14 39 -28 42 -32 8 -10 65
-45 68 -42 2 1 12 -7 22 -19 10 -12 21 -21 24 -21 3 1 29 -14 58 -31 29 -18
59 -33 67 -35 8 -1 18 -8 22 -15 5 -7 9 -9 9 -4 0 5 9 1 19 -8 11 -10 24 -15
30 -12 5 4 14 0 18 -9 5 -8 17 -16 28 -18 11 -2 36 -10 55 -20 19 -9 42 -17
50 -19 8 -2 19 -9 25 -16 5 -7 21 -14 35 -17 14 -2 34 -9 45 -14 25 -11 92
-30 125 -35 14 -3 25 -5 25 -6 0 -1 16 -4 35 -6 19 -3 42 -8 50 -11 8 -3 53
-7 100 -9 47 -1 86 -4 88 -5 1 -1 11 -3 22 -4 11 -1 21 -4 23 -5 1 -1 20 -4
42 -5 22 -2 54 -6 70 -10 27 -6 158 -9 210 -4 11 1 26 6 33 12 6 5 12 6 12 2
0 -4 6 -2 14 4 7 6 36 13 63 15 49 3 153 43 153 58 0 5 7 8 15 8 9 0 18 7 21
15 3 8 21 20 39 27 19 6 32 15 29 19 -2 4 6 11 18 15 13 3 30 14 39 23 9 9 31
27 48 41 17 14 31 29 31 35 0 6 14 16 32 24 30 13 53 30 83 59 8 6 19 12 25
12 6 0 8 4 5 10 -3 5 -2 10 4 10 6 0 28 17 49 38 21 21 51 48 67 60 15 12 24
22 20 22 -4 0 4 11 19 25 14 13 26 28 26 33 0 6 11 17 24 26 14 8 50 40 80 70
31 30 56 52 56 49 0 -3 10 7 22 22 29 37 121 125 131 125 4 0 7 4 7 8 0 4 29
38 65 75 36 38 63 72 60 78 -4 5 -3 8 2 7 9 -2 83 69 83 80 0 6 17 28 60 79
14 17 13 26 -2 17 -9 -5 -9 -3 1 9 7 9 17 14 22 11 5 -3 9 6 9 20 0 14 11 36
24 49 14 14 22 28 18 32 -4 3 1 11 10 16 9 5 19 23 23 39 4 17 11 30 16 30 6
0 7 4 4 10 -3 5 -2 10 3 10 11 0 81 147 88 185 3 16 9 32 13 35 12 7 25 52 22
73 -1 9 2 17 7 17 6 0 13 11 16 24 6 23 66 77 66 60 0 -5 23 15 51 44 28 29
53 52 55 52 5 0 82 82 126 133 10 11 15 24 11 30 -3 5 -2 7 4 4 9 -6 37 20 40
37 1 5 6 12 11 15 6 3 12 13 14 21 2 8 11 21 21 29 10 7 16 19 13 26 -2 7 4
22 14 32 10 11 21 35 25 54 4 19 14 42 22 51 8 9 12 22 8 27 -3 6 -2 11 3 11
5 0 15 12 22 28 14 28 16 34 23 68 3 11 12 36 19 55 8 18 15 37 16 42 1 4 8
20 16 36 9 16 18 42 21 59 7 40 30 83 40 74 5 -4 4 0 0 8 -15 25 -4 100 18
128 10 13 14 359 5 419 -3 18 -19 48 -36 68 -32 36 -33 48 -4 92 8 13 11 23 7
23 -4 0 -1 8 6 17 12 14 12 15 1 9 -11 -7 -12 -4 -3 13 7 11 19 21 27 21 8 0
13 4 9 9 -3 6 4 15 15 21 11 6 20 19 20 30 0 11 17 35 38 54 l37 34 2 164 c1
90 5 185 8 211 3 28 1 54 -5 61 -5 7 -7 16 -3 19 3 4 -2 8 -13 8 -10 1 -32 3
-49 4 -16 2 -45 4 -62 6 -18 2 -33 8 -33 13 0 5 -3 6 -6 3 -4 -3 -15 -2 -26 4
-11 6 -44 12 -75 15 -30 2 -60 7 -66 11 -6 4 -27 8 -46 10 -20 2 -37 6 -39 7
-6 6 -5 40 3 81 4 22 9 119 10 215 4 187 6 218 18 238 5 6 4 12 0 12 -11 0
-10 50 0 67 4 6 3 14 -2 18 -6 3 -8 11 -6 18 7 19 11 127 5 127 -8 0 -3 78 6
92 4 7 3 8 -4 4 -9 -5 -9 -1 -3 17 5 13 5 30 1 37 -5 8 -4 22 1 32 5 10 6 18
1 18 -5 0 -9 7 -9 15 0 8 4 15 8 15 5 0 5 10 0 23 -5 12 -5 32 0 45 5 13 5 22
-1 22 -6 0 -6 9 -1 23 5 12 9 24 11 27 1 3 -3 18 -9 33 -6 16 -7 26 -2 23 5
-4 7 3 4 14 -4 15 7 33 41 65 30 29 46 54 46 70 0 13 9 40 21 59 12 20 18 36
15 36 -4 0 4 12 17 26 29 31 59 122 63 189 3 66 13 147 18 153 3 2 -1 20 -8
40 -7 21 -12 52 -11 70 1 18 -2 35 -7 38 -4 3 -8 16 -8 30 0 13 -5 24 -11 24
-5 0 -8 4 -5 9 3 5 -5 25 -19 45 -14 20 -25 40 -25 43 0 3 -8 13 -19 22 -23
20 -27 136 -6 158 8 7 12 20 8 28 -3 9 -1 21 5 28 12 16 12 49 -1 65 -5 6 -7
12 -3 12 4 0 0 14 -9 30 -9 17 -12 30 -8 30 4 0 2 5 -4 11 -6 6 -9 18 -6 27 4
10 2 13 -5 8 -6 -3 -14 3 -17 16 -4 13 -42 58 -85 100 -42 43 -75 80 -73 82 3
2 -5 9 -16 16 -12 6 -19 15 -16 21 4 5 1 9 -5 9 -6 0 -8 5 -5 10 3 6 2 10 -4
10 -5 0 -22 14 -38 30 -15 17 -35 30 -45 30 -12 0 -16 8 -14 33 3 31 -11 76
-26 88 -4 3 -9 17 -10 32 -2 19 -8 27 -21 27 -13 0 -17 5 -13 15 3 8 0 20 -7
27 -7 7 -18 25 -26 40 -17 33 -48 68 -61 68 -5 0 -16 7 -25 16 -11 11 -36 17
-78 18 -41 1 -62 6 -63 14 -1 7 -2 17 -3 23 0 5 -5 8 -10 5 -15 -10 -57 18
-58 39 -2 31 -14 65 -24 65 -5 0 -9 5 -9 10 0 6 -16 28 -36 48 -20 20 -41 49
-46 64 -6 16 -14 26 -18 23 -5 -3 -12 0 -15 6 -4 5 -13 8 -21 5 -8 -3 -14 1
-14 10 0 8 -4 12 -10 9 -5 -3 -10 -2 -10 4 0 5 -8 8 -17 7 -25 -4 -113 45
-113 63 0 8 -3 11 -7 8 -3 -4 -15 5 -25 20 -10 16 -18 25 -18 21 0 -4 -12 5
-27 20 -15 15 -27 30 -26 33 1 4 -9 10 -23 13 -14 4 -23 10 -20 14 8 14 -19
27 -59 28 -22 1 -56 4 -75 8 -19 4 -41 8 -47 8 -7 1 -13 5 -13 10 0 4 -3 7 -7
7 -5 -1 -11 0 -15 1 -16 5 -28 8 -44 9 -8 0 -13 5 -10 10 5 7 -27 22 -56 25
-3 1 -9 4 -13 7 -7 8 -45 -1 -45 -10 0 -11 -84 -5 -87 6 -2 5 -22 8 -44 6 -40
-4 -163 29 -174 47 -7 11 -215 10 -230 0 -15 -12 -137 -5 -161 8 -12 6 -24 9
-27 6 -3 -3 -12 -2 -19 2 -7 5 -20 9 -28 11 -8 1 -16 7 -18 12 -5 14 -38 14
-65 0 -16 -9 -22 -9 -25 0 -5 16 -32 13 -75 -11z m2413 -4214 c0 17 47 -39 57
-69 13 -38 3 -65 -36 -97 -16 -14 -28 -27 -26 -29 1 -2 -8 -12 -21 -22 l-24
-18 0 70 c0 38 4 72 8 75 4 2 9 17 10 33 1 15 4 37 6 48 3 11 5 22 5 25 1 3 6
-2 11 -10 5 -8 10 -11 10 -6z"/>
</g>
</svg>
